<?xml version="1.0" encoding="UTF-8" standalone="no"?>
<!-- Created with Inkscape (http://www.inkscape.org/) -->

<svg
   width="100mm"
   height="100mm"
   viewBox="0 0 100 100"
   version="1.1"
   id="svg1"
   xml:space="preserve"
   inkscape:export-filename="favicon-dark.svg"
   inkscape:export-xdpi="8.1280003"
   inkscape:export-ydpi="8.1280003"
   xmlns:inkscape="http://www.inkscape.org/namespaces/inkscape"
   xmlns:sodipodi="http://sodipodi.sourceforge.net/DTD/sodipodi-0.dtd"
   xmlns="http://www.w3.org/2000/svg"
   xmlns:svg="http://www.w3.org/2000/svg"><sodipodi:namedview
     id="namedview1"
     pagecolor="#ffffff"
     bordercolor="#000000"
     borderopacity="0.25"
     inkscape:showpageshadow="2"
     inkscape:pageopacity="0.0"
     inkscape:pagecheckerboard="0"
     inkscape:deskcolor="#d1d1d1"
     inkscape:document-units="mm" /><defs
     id="defs1" /><g
     inkscape:label="Layer 1"
     inkscape:groupmode="layer"
     id="layer1"><path
       style="display:inline;fill:#f1dfc2;fill-opacity:1;stroke-width:0.9142"
       d="M 27.145914,98.408637 C 26.697712,98.25975 26.135858,97.865812 25.89735,97.533226 25.495119,96.972337 25.480848,96.577997 25.700386,92.090876 26.223573,81.397505 27.477547,74.423593 29.787631,69.359902 30.913944,66.891022 30.985557,67.11896 28.531863,65.3629 18.342319,58.070453 13.123155,46.108071 13.661403,31.279653 c 0.161767,-4.45657 0.443231,-7.008267 1.147913,-10.406751 0.939139,-4.529195 1.305909,-4.759089 6.28508,-3.939435 3.629286,0.59743 8.263651,2.069658 10.563324,3.355709 2.290182,1.280739 4.968443,3.486988 6.111733,5.0346 0.543635,0.735895 1.042165,1.337987 1.107845,1.337987 0.06568,0 0.499653,-0.834372 0.964384,-1.854162 C 42.205798,19.619899 46.70658,14.870187 52.151925,11.816516 55.042452,10.195549 58.366164,9.2088749 66.438122,7.5755247 73.925503,6.0604656 80.304262,4.4479655 85.235211,2.8237692 86.793282,2.3105582 88.153877,1.9772418 88.258736,2.0830668 88.611919,2.439487 88.410648,15.20503 87.985618,19.4053 86.503983,34.047285 83.96056,40.131232 76.892448,45.94048 c -0.901885,0.741252 -1.590607,1.396907 -1.530508,1.457007 0.06006,0.06015 0.960532,-0.06674 2.000947,-0.281931 1.040424,-0.215157 2.825207,-0.457465 3.966193,-0.538454 2.054126,-0.145806 2.079696,-0.140668 2.601887,0.523196 1.370477,1.742283 0.09014,9.903128 -2.314947,14.75531 -2.671457,5.389612 -5.913732,9.315608 -10.582132,12.813676 -1.880126,1.408792 -6.902229,3.983115 -9.675291,4.959536 -4.229309,1.489186 -9.297653,2.382524 -16.456676,2.900629 -7.431426,0.537824 -11.463473,2.547492 -12.919643,6.439461 -0.536421,1.433713 -1.221768,4.970979 -1.221768,6.305885 0,0.961602 -0.490473,2.246492 -1.027558,2.691881 -0.659762,0.54713 -1.723447,0.728846 -2.587038,0.441961 z M 37.879909,75.082338 c 3.345899,-2.691643 5.538623,-3.565362 14.320478,-5.706181 2.412949,-0.588224 5.055618,-1.339487 5.872602,-1.669485 3.083131,-1.245333 5.611644,-3.113437 7.291021,-5.386724 1.043157,-1.412082 2.328989,-3.885844 2.125552,-4.08929 -0.174283,-0.174283 -9.055372,0.526278 -12.419894,0.979712 -4.568091,0.61564 -7.527058,1.553134 -9.924276,3.144309 -2.768325,1.837515 -6.345702,6.322361 -8.583351,10.760684 -0.954249,1.892733 -2.173299,4.758869 -2.173299,5.109693 0,0.110481 0.398108,-0.239785 0.884686,-0.778368 0.486577,-0.538583 1.659494,-1.602538 2.606481,-2.36435 z M 36.244865,63.488826 c 2.164842,-3.627893 7.656068,-11.034396 10.805182,-14.573904 3.771488,-4.239046 6.442315,-6.781592 12.373499,-11.779186 5.145046,-4.335201 8.304759,-7.868329 11.149375,-12.466984 1.435706,-2.32099 2.919398,-5.383944 3.045137,-6.286415 0.06445,-0.462576 -0.01892,-0.53574 -0.528179,-0.463554 -0.939286,0.133144 -3.413349,1.324401 -5.364033,2.582761 -2.664263,1.718687 -7.683505,6.933779 -12.654798,13.148585 -2.382835,2.978875 -4.370736,5.3012 -4.417561,5.160714 -0.04683,-0.140476 0.07917,-1.121449 0.279937,-2.179946 0.697526,-3.67706 0.974117,-7.96635 0.680421,-10.551827 -0.148512,-1.307461 -0.327274,-2.434442 -0.397238,-2.504405 -0.06994,-0.06994 -0.617453,0.05997 -1.216635,0.288841 -1.960607,0.748767 -3.925726,3.58031 -4.709224,6.785541 -0.329007,1.345941 -0.729852,6.847451 -0.737781,10.125882 -0.0049,2.024853 -0.05745,2.239617 -0.976526,3.99106 -1.263413,2.407619 -6.240491,9.406416 -6.374156,8.963376 -0.05636,-0.186799 -0.224977,-3.169651 -0.374713,-6.628564 -0.254048,-5.868552 -0.630477,-9.216536 -1.26461,-11.247514 -1.040369,-3.332068 -3.315874,-5.805171 -5.341326,-5.805171 -2.108736,0 -2.732297,1.585598 -2.711025,6.893636 0.02274,5.676214 0.83061,8.948447 4.383199,17.754078 1.885765,4.674159 2.678032,7.44488 2.790326,9.758373 0.03709,0.764052 0.08685,1.389923 0.110593,1.390828 0.02374,8.96e-4 0.676301,-1.059393 1.450136,-2.356205 z M 58.921943,49.764232 c 5.129385,-0.819681 8.051571,-1.747942 9.932538,-3.15517 2.288919,-1.712425 4.069717,-4.810512 4.408282,-7.669152 l 0.13639,-1.151572 -1.787344,0.0018 c -2.29509,0.0018 -6.186219,0.585582 -8.197212,1.229746 -3.541584,1.134449 -6.776619,3.391289 -9.512747,6.636316 -1.424963,1.68999 -4.274533,5.629782 -4.274533,5.909929 0,0.082 1.216497,-0.149984 2.703334,-0.515554 1.486837,-0.36557 4.452914,-0.944259 6.591292,-1.285969 z"
       id="path3" /></g></svg>
